<svg xmlns="http://www.w3.org/2000/svg" viewBox="0 0 64 64" id="brochure"><path d="M60.31 14.09 41.64 8A1.44 1.44 0 0 0 41 8l-18.33 6L4.31 8a1 1 0 0 0-.9.15A1 1 0 0 0 3 9v40a1 1 0 0 0 .69.95L22.36 56a1.06 1.06 0 0 0 .64 0l18.35-6 18.36 6a1.1 1.1 0 0 0 .29 0 1 1 0 0 0 1-1V15a1 1 0 0 0-.69-.91ZM5 10.33l16.67 5.44v37.9L5 48.23Zm18.67 5.44 16.66-5.44v37.9l-16.66 5.44ZM59 53.67l-16.67-5.44v-37.9L59 15.77Z"></path><path d="m45 32.58 10.72 3.49a.84.84 0 0 0 .31 0 1 1 0 0 0 .59-.19 1 1 0 0 0 .41-.81V17.93a1 1 0 0 0-.69-1l-10.72-3.45a1 1 0 0 0-1.31.95v17.19a1 1 0 0 0 .69.96zm1.31-16.77L55 18.65v15.1l-8.69-2.85zm10.03 23.11-3.29-1.07a1 1 0 0 0-.62 1.9l3.29 1.07a1.12 1.12 0 0 0 .31 0 1 1 0 0 0 .31-1.95zM50.31 37l-4.69-1.53a1 1 0 0 0-1.27.64 1 1 0 0 0 .65 1.21l4.69 1.53a.81.81 0 0 0 .31 0 1 1 0 0 0 .31-1.85zm6.03 5.63-3.29-1.07a1 1 0 0 0-.62 1.9l3.29 1.07a.84.84 0 0 0 .31 0 1 1 0 0 0 .95-.69 1 1 0 0 0-.64-1.21zM45 41l4.69 1.53a1.06 1.06 0 0 0 .31 0 1 1 0 0 0 .31-1.95l-4.69-1.54A1 1 0 1 0 45 41zm11.34 5.28-3.29-1.07a1 1 0 0 0-.62 1.9l3.29 1.07a1.12 1.12 0 0 0 .31 0 1 1 0 0 0 .31-1.95zm-6.03-1.97-4.69-1.53a1 1 0 0 0-1.27.64 1 1 0 0 0 .65 1.26l4.69 1.53a.81.81 0 0 0 .31 0 1 1 0 0 0 .31-1.95zM18.65 17 7.92 13.48a1 1 0 0 0-1.31.95v17.19a1 1 0 0 0 .69 1L18 36.07a.81.81 0 0 0 .31 0 1 1 0 0 0 .58-.19 1 1 0 0 0 .42-.81V17.93a1 1 0 0 0-.66-.93zm-1.31 16.75L8.61 30.9V15.81l8.73 2.84zm1.3 6.1-3.26-1.06a1 1 0 0 0-1.31 1V45a1 1 0 0 0 .69 1L18 47a1.15 1.15 0 0 0 .31 0 1 1 0 0 0 .59-.19 1 1 0 0 0 .41-.81v-5.2a1 1 0 0 0-.67-.95zm-1.31 4.85-1.26-.42v-3.17l1.26.42zm-4.94-6.89-4.47-1.46a1 1 0 0 0-.9.14 1 1 0 0 0-.41.81v5.28a1 1 0 0 0 .69 1L11.77 45a.81.81 0 0 0 .31.05.94.94 0 0 0 .58-.19 1 1 0 0 0 .42-.81v-5.29a1 1 0 0 0-.69-.95zm-1.31 4.85-2.47-.81v-3.17l2.47.81zM27.1 19.58a1.06 1.06 0 0 0 .31 0l3.29-1.07a1 1 0 1 0-.62-1.9l-3.29 1.07a1 1 0 0 0 .31 1.95zm6.04-1.97a.87.87 0 0 0 .31-.05L38.14 16a1 1 0 1 0-.62-1.9l-4.69 1.53a1 1 0 0 0 .31 1.95zM31.34 21a1 1 0 0 0-1.26-.65l-3.29 1.08a1 1 0 0 0 .31 2 1.06 1.06 0 0 0 .31-.05l3.29-1.08a1 1 0 0 0 .64-1.3zm1.8.45a1.18 1.18 0 0 0 .31-.05l4.69-1.53a1 1 0 0 0-.62-1.9l-4.69 1.53a1 1 0 0 0 .31 1.95zm-1.8 3.42a1 1 0 0 0-1.26-.64l-3.29 1.07a1 1 0 0 0-.64 1.27 1 1 0 0 0 1 .69 1.06 1.06 0 0 0 .31-.05l3.29-1.08a1 1 0 0 0 .59-1.26zm1.8.42a1.18 1.18 0 0 0 .31-.05l4.69-1.53a1 1 0 0 0-.62-1.9l-4.69 1.53a1 1 0 0 0 .31 1.95zm-3.06 2.78-3.29 1.07a1 1 0 0 0-.64 1.26 1 1 0 0 0 1 .69.81.81 0 0 0 .31-.05L30.7 30a1 1 0 0 0 .64-1.26 1 1 0 0 0-1.26-.67zm3.06 1.06a1.18 1.18 0 0 0 .31-.05l4.69-1.53a1 1 0 0 0-.62-1.91l-4.69 1.54a1 1 0 0 0 .31 1.95zm-5.73 5.75 3.29-1.07a1 1 0 0 0-.62-1.9L26.79 33a1 1 0 0 0-.64 1.26 1 1 0 0 0 1 .69.81.81 0 0 0 .26-.07zm6.04-1.96 4.69-1.53a1 1 0 0 0-.62-1.91L32.83 31a1 1 0 0 0-.64 1.27 1 1 0 0 0 1 .68 1.15 1.15 0 0 0 .26-.03zM31.28 38a1 1 0 0 0-.89-.14l-3.27 1.06a1 1 0 0 0-.69.95v8.94a1 1 0 0 0 .41.81 1 1 0 0 0 .59.19 1.06 1.06 0 0 0 .31-.05L31 48.7a1 1 0 0 0 .69-1v-8.89a1 1 0 0 0-.41-.81zm-1.58 9-1.27.41V40.6l1.27-.41zm9.04-11.43a1 1 0 0 0-.89-.14l-4.47 1.45a1 1 0 0 0-.69.95v8.94a1 1 0 0 0 .41.81 1 1 0 0 0 .59.19 1.12 1.12 0 0 0 .31-.05l4.47-1.45a1 1 0 0 0 .69-1v-8.89a1 1 0 0 0-.42-.81zm-1.58 9-2.47.8v-6.81l2.47-.81z"></path></svg>